<?xml version="1.0" encoding="UTF-8" standalone="no"?>
<!-- Generator: Adobe Illustrator 27.5.0, SVG Export Plug-In . SVG Version: 6.00 Build 0)  -->

<svg
   version="1.1"
   id="Livello_1"
   x="0px"
   y="0px"
   viewBox="0 0 777.5 193.38"
   xml:space="preserve"
   sodipodi:docname="logo-aquaponic.svg"
   width="777.5"
   height="193.38"
   inkscape:version="1.1.2 (b8e25be833, 2022-02-05)"
   xmlns:inkscape="http://www.inkscape.org/namespaces/inkscape"
   xmlns:sodipodi="http://sodipodi.sourceforge.net/DTD/sodipodi-0.dtd"
   xmlns="http://www.w3.org/2000/svg"
   xmlns:svg="http://www.w3.org/2000/svg"><defs
   id="defs31" /><sodipodi:namedview
   id="namedview29"
   pagecolor="#ffffff"
   bordercolor="#666666"
   borderopacity="1.0"
   inkscape:pageshadow="2"
   inkscape:pageopacity="0.0"
   inkscape:pagecheckerboard="0"
   showgrid="false"
   fit-margin-top="0"
   fit-margin-left="0"
   fit-margin-right="0"
   fit-margin-bottom="0"
   inkscape:zoom="1.8089888"
   inkscape:cx="388.06211"
   inkscape:cy="98.121118"
   inkscape:window-width="2560"
   inkscape:window-height="1361"
   inkscape:window-x="-9"
   inkscape:window-y="-9"
   inkscape:window-maximized="1"
   inkscape:current-layer="Livello_1" />
<style
   type="text/css"
   id="style2">
	.st0{fill:#4AB9BD;}
	.st1{fill:#FFFFFF;}
</style>
<g
   id="g26"
   transform="translate(-12,-10)">
	<path
   class="st0"
   d="m 528.77,202.81 c 4.36,0 8.47,-0.81 12.32,-2.42 3.85,-1.61 7.27,-3.9 10.24,-6.87 2.97,-2.91 5.28,-6.27 6.92,-10.09 1.64,-3.82 2.47,-7.88 2.47,-12.18 0,-4.3 -0.82,-8.36 -2.47,-12.18 -1.64,-3.82 -3.95,-7.22 -6.92,-10.19 -2.97,-2.91 -6.38,-5.17 -10.24,-6.78 -3.85,-1.61 -7.96,-2.42 -12.32,-2.42 h -15.54 v 63.12 h 15.54 z m 0,-58.86 c 3.73,0 7.3,0.7 10.71,2.08 3.41,1.39 6.38,3.35 8.91,5.88 2.53,2.53 4.5,5.45 5.92,8.77 1.42,3.32 2.13,6.84 2.13,10.57 0,3.73 -0.71,7.25 -2.13,10.57 -1.42,3.32 -3.4,6.24 -5.92,8.77 -2.53,2.53 -5.5,4.49 -8.91,5.88 -3.41,1.39 -6.98,2.09 -10.71,2.09 h -11.18 v -54.59 h 11.18 z m 74.97,58.86 v -4.27 H 573.6 v -25.12 h 20.28 v -4.17 H 573.6 v -25.21 h 30.14 v -4.27 h -34.5 v 63.03 h 34.5 z m 51.08,-46.35 c -0.82,-4.86 -2.84,-8.82 -6.07,-11.85 -3.79,-3.35 -8.75,-5.02 -14.88,-5.02 -6.38,0 -11.31,1.67 -14.79,5.02 -1.52,1.52 -2.7,3.35 -3.55,5.5 -0.85,2.15 -1.28,4.45 -1.28,6.92 0,10.11 6.03,15.64 18.1,16.59 7.08,0.63 12,1.96 14.79,3.98 2.46,1.77 3.7,4.58 3.7,8.43 0,1.77 -0.35,3.45 -1.04,5.02 -1.52,3.16 -4.14,5.4 -7.87,6.73 -2.53,0.89 -5.25,1.33 -8.15,1.33 -2.15,0 -4.27,-0.28 -6.35,-0.85 -2.65,-0.76 -4.93,-2.05 -6.82,-3.89 -1.9,-1.83 -3.19,-4.26 -3.89,-7.3 h -4.45 c 0.82,4.49 2.78,8.09 5.88,10.81 3.85,3.66 9.19,5.5 16.02,5.5 6.7,0 12,-1.86 15.92,-5.59 1.64,-1.58 2.92,-3.38 3.84,-5.4 0.92,-2.02 1.38,-4.14 1.38,-6.35 0,-5.69 -2.18,-9.89 -6.54,-12.6 -1.77,-1.07 -3.92,-1.94 -6.45,-2.61 -2.53,-0.66 -5.72,-1.15 -9.57,-1.47 -4.3,-0.38 -7.49,-1.26 -9.57,-2.65 -2.97,-2.02 -4.46,-5.24 -4.46,-9.67 0,-3.92 1.14,-7.05 3.41,-9.38 2.46,-2.46 6.41,-3.7 11.85,-3.7 6.38,0 11.06,2.15 14.03,6.44 1.2,1.71 1.99,3.73 2.37,6.07 h 4.44 z m 13.37,46.35 v -63.03 h -4.36 v 63.03 z m 59.43,-6.07 c 2.21,-1.71 4.27,-3.79 6.16,-6.26 v -16.02 h -13.74 v 4.17 h 9.57 l -0.09,10.33 c -2.84,3.22 -6.07,5.67 -9.67,7.34 -3.6,1.67 -7.46,2.51 -11.56,2.51 -3.1,0 -6.03,-0.51 -8.81,-1.52 -2.84,-0.95 -5.47,-2.34 -7.87,-4.17 -2.4,-1.83 -4.42,-3.98 -6.07,-6.44 -1.45,-2.15 -2.58,-4.49 -3.37,-7.01 -0.79,-2.53 -1.18,-5.15 -1.18,-7.87 0,-0.57 0.06,-1.55 0.19,-2.94 0.32,-3.16 1.14,-6.14 2.46,-8.96 1.33,-2.81 3.03,-5.29 5.12,-7.44 2.34,-2.4 5.15,-4.38 8.43,-5.92 3.29,-1.55 6.89,-2.32 10.81,-2.32 3.85,0 7.55,0.74 11.09,2.23 3.54,1.49 6.64,3.62 9.29,6.4 l 3.32,-2.75 c -5.31,-5.5 -11.56,-8.78 -18.77,-9.86 -2.02,-0.25 -3.54,-0.38 -4.55,-0.38 -5.24,0 -10.4,1.36 -15.45,4.08 -5.69,3.1 -10.08,7.77 -13.18,14.03 -2.02,4.36 -3.03,8.91 -3.03,13.65 0,2.65 0.25,4.99 0.76,7.01 0.63,2.59 1.58,5.18 2.84,7.77 2.08,3.79 4.75,7.01 8.01,9.67 3.25,2.65 6.84,4.55 10.76,5.69 3.03,0.95 6.16,1.42 9.38,1.42 5.12,0 10.05,-1.23 14.79,-3.7 1.45,-0.75 2.9,-1.66 4.36,-2.74 z m 61.6,6.07 v -63.03 h -4.27 v 57.44 l -36.49,-57.44 h -5.21 v 63.03 h 4.36 v -55.92 l 35.45,55.92 z"
   id="path4" />
	<polygon
   class="st0"
   points="789.5,131.49 789.5,10 12,10 12,131.49 "
   id="polygon6" />
	<path
   class="st1"
   d="m 28.4,108.17 4.55,-7.9 28.37,-53.41 3.02,-5.98 c 0.88,-1.76 2.1,-4.28 3.68,-7.57 6.43,0.07 11.13,0.11 14.09,0.11 5.15,0 9.92,-0.04 14.31,-0.11 l 8,22.87 16.28,43.98 3.18,8.01 c -6.33,-0.07 -10.18,-0.11 -11.53,-0.11 -3.07,0 -7.59,0.04 -13.56,0.11 -1.61,-6.03 -3.92,-13.12 -6.95,-21.28 h -27.6 c -3.18,6.44 -6.46,13.53 -9.86,21.28 -6.81,-0.07 -10.98,-0.11 -12.52,-0.11 -2.79,0 -7.28,0.04 -13.46,0.11 z M 70.86,70.94 H 87.89 C 83.66,58.06 81.34,50.96 80.94,49.64 78.53,55.01 76.48,59.4 74.8,62.83 Z"
   id="path8" />
	<path
   class="st1"
   d="m 220.61,89.36 c -0.69,2.89 -1.26,5.61 -1.7,8.17 l -1.59,8.88 c -5.92,0.95 -12.87,1.72 -20.84,2.3 -7.97,0.58 -15.1,0.88 -21.39,0.88 -5.52,0 -10.74,-0.46 -15.66,-1.37 -4.92,-0.91 -9.44,-2.56 -13.57,-4.94 -4.13,-2.38 -7.55,-5.23 -10.25,-8.55 -2.71,-3.33 -4.62,-6.89 -5.73,-10.69 -1.12,-3.8 -1.67,-7.84 -1.67,-12.12 0,-5.81 1.04,-11.14 3.13,-15.99 2.09,-4.85 5.14,-9.04 9.19,-12.58 4.04,-3.55 8.96,-6.34 14.75,-8.39 5.79,-2.05 12.46,-3.07 19.99,-3.07 5.78,0 11.36,0.81 16.75,2.44 5.39,1.63 10.03,4.1 13.9,7.4 3.87,3.31 6.86,7.23 8.97,11.76 2.1,4.53 3.15,9.03 3.15,13.49 0,2.56 -0.29,5.08 -0.88,7.57 -0.59,2.49 -1.42,4.8 -2.5,6.94 -1.08,2.14 -2.25,3.99 -3.51,5.57 -1.26,1.57 -2.79,3.27 -4.58,5.1 3.36,-0.48 5.86,-0.89 7.49,-1.23 1.62,-0.35 3.8,-0.87 6.55,-1.57 z M 173.99,48.51 c -4.28,0 -8.22,1.04 -11.82,3.13 -3.6,2.08 -6.34,4.96 -8.22,8.64 -1.88,3.67 -2.83,7.47 -2.83,11.38 0,4.28 0.9,7.97 2.71,11.08 1.81,3.11 4.38,5.54 7.7,7.29 3.33,1.75 6.91,2.63 10.75,2.63 4.06,0 7.82,-0.97 11.3,-2.91 3.47,-1.94 6.12,-4.71 7.95,-8.31 1.83,-3.6 2.74,-7.52 2.74,-11.76 0,-3.91 -0.8,-7.49 -2.41,-10.75 -1.61,-3.25 -3.99,-5.8 -7.16,-7.65 -3.15,-1.85 -6.72,-2.77 -10.71,-2.77 z"
   id="path10" />
	<path
   class="st1"
   d="m 232.03,33.32 c 5.7,0.07 9.72,0.11 12.06,0.11 2.92,0 6.81,-0.04 11.67,-0.11 l -1.63,23.31 c -0.33,4.39 -0.57,8.5 -0.74,12.34 -0.16,3.84 -0.24,6.49 -0.24,7.95 0,2.78 0.2,5.1 0.6,6.96 0.4,1.87 1.13,3.45 2.19,4.74 1.06,1.3 2.53,2.28 4.41,2.93 1.88,0.66 3.84,0.99 5.89,0.99 1.75,0 3.4,-0.24 4.93,-0.72 1.2,-0.39 2.28,-0.94 3.23,-1.63 0.84,-0.65 1.57,-1.42 2.19,-2.29 0.77,-1.04 1.44,-2.35 2.03,-3.92 0.58,-1.48 1.02,-3.39 1.32,-5.75 0.33,-2.39 0.77,-7.84 1.32,-16.33 0.48,-7.23 0.84,-13.84 1.1,-19.85 0.22,-5.83 0.42,-8.75 0.6,-8.75 5.52,0 9.87,0 13.05,0 h 11.13 l -2.67,38.94 c -0.04,0.73 -0.05,1.33 -0.05,1.81 -0.15,7.61 -0.61,12.97 -1.4,16.09 -0.79,3.13 -2.09,5.84 -3.92,8.14 -1.83,2.3 -4.5,4.38 -8.01,6.22 -3.51,1.85 -7.5,3.15 -11.96,3.92 -4.46,0.77 -8.98,1.15 -13.55,1.15 -4.1,0 -8.04,-0.29 -11.85,-0.88 -3.51,-0.58 -6.67,-1.43 -9.49,-2.55 -2.82,-1.11 -5.27,-2.42 -7.35,-3.92 -1.9,-1.39 -3.36,-2.8 -4.39,-4.25 -1.02,-1.44 -1.83,-3.17 -2.41,-5.18 -0.66,-2.27 -0.99,-4.7 -0.99,-7.29 0,-0.88 0.04,-2.2 0.11,-3.98 0.07,-1.77 0.24,-4.32 0.5,-7.65 l 0.72,-8.77 c 0.18,-2.3 0.39,-5.68 0.61,-10.14 z"
   id="path12" />
	<path
   class="st1"
   d="m 306.21,108.17 4.55,-7.9 28.37,-53.41 3.02,-5.98 c 0.88,-1.76 2.1,-4.28 3.67,-7.57 6.43,0.07 11.13,0.11 14.09,0.11 5.15,0 9.92,-0.04 14.31,-0.11 l 8,22.87 16.28,43.98 3.18,8.01 c -6.33,-0.07 -10.17,-0.11 -11.53,-0.11 -3.07,0 -7.59,0.04 -13.56,0.11 -1.61,-6.03 -3.92,-13.12 -6.95,-21.28 h -27.61 c -3.18,6.44 -6.47,13.53 -9.86,21.28 -6.81,-0.07 -10.98,-0.11 -12.52,-0.11 -2.77,0 -7.26,0.04 -13.44,0.11 z m 42.46,-37.23 h 17.03 c -4.23,-12.88 -6.55,-19.98 -6.95,-21.3 -2.41,5.37 -4.46,9.76 -6.14,13.19 z"
   id="path14" />
	<path
   class="st1"
   d="m 407.66,108.17 1.09,-14.04 1.42,-27.42 0.6,-19.41 c 0.04,-2.08 0.05,-4.17 0.05,-6.25 0,-1.57 -0.02,-4.15 -0.05,-7.73 4.83,0.11 8.7,0.17 11.63,0.17 2.82,0 6.67,-0.08 11.58,-0.25 4.9,-0.16 9.05,-0.25 12.45,-0.25 4.9,0 8.53,0.31 10.89,0.93 2.36,0.62 4.49,1.6 6.39,2.93 1.9,1.34 3.47,2.9 4.72,4.69 1.24,1.79 2.18,3.83 2.8,6.11 0.62,2.29 0.93,4.62 0.93,6.99 0,4.9 -1.19,9.38 -3.57,13.44 -2.38,4.06 -5.72,7.09 -10.03,9.1 -4.31,2.01 -9.16,3.02 -14.53,3.02 -1.97,0 -4.26,-0.22 -6.85,-0.66 -0.29,-1.68 -0.84,-4.19 -1.65,-7.51 -0.8,-3.33 -1.46,-5.79 -1.97,-7.4 1.61,0.33 3.29,0.49 5.04,0.49 3.69,0 6.44,-0.89 8.25,-2.66 1.81,-1.77 2.72,-3.94 2.72,-6.5 0,-1.24 -0.2,-2.35 -0.6,-3.32 -0.4,-0.97 -1.04,-1.76 -1.92,-2.39 -0.88,-0.62 -1.85,-1.02 -2.91,-1.21 -1.06,-0.18 -2.27,-0.27 -3.62,-0.27 -1.32,0 -2.69,0.04 -4.11,0.11 l -4.61,0.33 c -0.47,7.06 -0.83,14.9 -1.09,23.53 -0.47,15.72 -0.71,25.15 -0.71,28.3 v 7.13 l -10.92,-0.11 c -1.54,0 -5.35,0.04 -11.42,0.11 z"
   id="path16" />
	<path
   class="st1"
   d="m 524.41,31.89 c 5.85,0 11.48,0.79 16.89,2.36 5.41,1.57 10.14,4.09 14.2,7.54 4.06,3.46 7.09,7.43 9.1,11.93 2.01,4.5 3.02,9.67 3.02,15.52 0,6.14 -1.11,11.78 -3.32,16.92 -2.21,5.14 -5.4,9.5 -9.57,13.08 -4.17,3.58 -9.14,6.21 -14.92,7.87 -5.78,1.66 -11.79,2.5 -18.04,2.5 -6.18,0 -12.1,-0.81 -17.77,-2.44 -5.67,-1.63 -10.59,-4.26 -14.78,-7.9 -4.19,-3.64 -7.16,-7.69 -8.91,-12.15 -1.76,-4.46 -2.63,-9.41 -2.63,-14.86 0,-8.01 1.85,-15.03 5.57,-21.09 3.71,-6.05 9.21,-10.78 16.51,-14.18 7.3,-3.4 15.51,-5.1 24.65,-5.1 z m -0.99,16.51 c -4.21,0 -8.01,1.03 -11.41,3.1 -3.4,2.07 -6.02,4.94 -7.84,8.61 -1.83,3.67 -2.74,7.61 -2.74,11.82 0,3.88 0.83,7.42 2.49,10.64 1.66,3.22 4.2,5.73 7.59,7.54 3.4,1.81 7,2.71 10.8,2.71 4.06,0 7.78,-1.02 11.16,-3.04 3.38,-2.03 5.96,-4.88 7.73,-8.55 1.77,-3.68 2.66,-7.52 2.66,-11.54 0,-3.91 -0.82,-7.52 -2.47,-10.83 -1.65,-3.31 -4.06,-5.88 -7.24,-7.7 -3.16,-1.85 -6.74,-2.76 -10.73,-2.76 z"
   id="path18" />
	<path
   class="st1"
   d="m 576.45,108.17 1.1,-11.52 2.14,-39.04 0.6,-15.74 v -8.55 c 5.68,0.07 10.69,0.11 15.05,0.11 3.11,0 7.49,-0.04 13.13,-0.11 l 23.41,42.57 3.23,6.25 c 0.41,-6.14 0.83,-14.76 1.27,-25.84 0.43,-11.08 0.65,-18.74 0.65,-22.99 4.49,0.07 8.09,0.11 10.79,0.11 1.24,0 4.82,-0.04 10.74,-0.11 l -1.32,16.34 -2.47,45.41 -0.33,13.11 c -4.76,-0.07 -9.2,-0.11 -13.33,-0.11 -3.44,0 -8.2,0.04 -14.27,0.11 -1.9,-3.58 -3.31,-6.18 -4.22,-7.79 l -9.2,-15.63 c -3.03,-5.12 -5.82,-10.02 -8.38,-14.7 -1.68,-2.96 -3.41,-6.22 -5.2,-9.76 l -1.18,26 -0.56,21.89 c -4.53,-0.07 -7.98,-0.11 -10.35,-0.11 -2.02,-0.01 -5.78,0.03 -11.3,0.1 z"
   id="path20" />
	<path
   class="st1"
   d="m 668.8,108.17 c 2.11,-29.36 3.16,-51.95 3.16,-67.78 l -0.05,-7.07 c 6.4,0.07 10.68,0.11 12.84,0.11 0.99,0 4.92,-0.04 11.8,-0.11 -0.66,8.23 -1.19,16.01 -1.6,23.36 -0.52,10.24 -0.88,19.81 -1.1,28.71 -0.22,8.9 -0.33,16.5 -0.33,22.79 l -11.24,-0.11 c -2.19,-0.01 -6.68,0.03 -13.48,0.1 z"
   id="path22" />
	<path
   class="st1"
   d="m 771.79,89.91 c -0.44,2.15 -0.97,5.15 -1.59,8.99 -0.62,3.85 -1.04,6.82 -1.26,8.94 -7.82,1.17 -14.81,1.76 -20.95,1.76 -5.92,0 -11.43,-0.74 -16.53,-2.22 -5.1,-1.48 -9.78,-3.91 -14.04,-7.29 -4.26,-3.38 -7.3,-7.36 -9.13,-11.93 -1.83,-4.57 -2.74,-9.69 -2.74,-15.35 0,-6.62 1.23,-12.57 3.7,-17.85 2.47,-5.28 6.01,-9.69 10.64,-13.22 4.62,-3.53 9.7,-6.05 15.22,-7.57 5.52,-1.52 11.22,-2.28 17.11,-2.28 5.41,0 12.1,0.69 20.07,2.08 l 0.11,4.61 c 0.07,2.01 0.18,4.22 0.33,6.64 l 0.38,6.25 c -4.28,-1.02 -7.74,-1.72 -10.39,-2.08 -2.65,-0.36 -5.11,-0.55 -7.38,-0.55 -4.94,0 -9.38,0.99 -13.33,2.96 -3.95,1.97 -7.06,4.85 -9.32,8.61 -2.27,3.77 -3.4,7.93 -3.4,12.5 0,4.17 0.95,7.74 2.85,10.72 1.9,2.98 4.47,5.28 7.71,6.91 3.23,1.63 7.23,2.44 11.98,2.44 2.6,0 5.42,-0.21 8.47,-0.63 3.05,-0.42 6.88,-1.23 11.49,-2.44 z"
   id="path24" />
</g>
</svg>
