<?xml version="1.0" encoding="UTF-8" standalone="no"?> <svg xmlns="http://www.w3.org/2000/svg" xmlns:xlink="http://www.w3.org/1999/xlink" xmlns:serif="http://www.serif.com/" width="100%" height="100%" viewBox="0 0 242 60" version="1.1" xml:space="preserve" style="fill-rule:evenodd;clip-rule:evenodd;stroke-linejoin:round;stroke-miterlimit:2;"> <g id="Artboard1" transform="matrix(0.143702,0,0,0.140435,-10.3383,-6.67863)"> <rect x="71.943" y="47.557" width="1681.76" height="426.463" style="fill:none;"></rect> <g id="Layer_1" transform="matrix(6.95885,0,0,7.12072,-474.831,-287.117)"> <g transform="matrix(0.145838,0,0,0.145838,66.1397,38.8199)"> <path d="M388.6,447C378.1,456.9 351.1,459.1 315.4,459.1L314.7,459.1C279,459.1 252,456.9 241.5,447C250.1,452.4 257.5,450.3 268.6,442.9C281.3,434.4 297.3,421.7 315,406.3C332.8,421.7 348.7,434.4 361.4,442.9C372.6,450.3 380,452.5 388.6,447Z" style="fill:rgb(0,152,202);fill-rule:nonzero;"></path> <path d="M446.9,277.9C444.9,290.9 442.8,302.6 440.7,311.9C433.7,343.4 414.1,416.3 396.5,439.6C394,442 391.5,444.5 388.9,446.9C388.8,447 388.8,447 388.7,447.1C380.1,452.5 372.7,450.4 361.6,443C348.9,434.5 332.9,421.8 315.2,406.4C355,371.6 404.3,323 446.9,277.9Z" style="fill:rgb(0,178,218);fill-rule:nonzero;"></path> <path d="M241.5,447C241.4,447 241.3,446.9 241.3,446.9C238.7,444.4 236.2,442 233.7,439.6C216,416.3 196.5,343.4 189.5,311.9C187.4,302.6 185.3,290.9 183.3,277.9C225.9,323.1 275.2,371.6 315.2,406.4C297.4,421.8 281.5,434.5 268.8,443C257.5,450.3 250.1,452.5 241.5,447Z" style="fill:url(#_Linear1);fill-rule:nonzero;"></path> <path d="M537.6,145.2C538.8,178.2 534,271.4 515,299.8C477.1,356.7 450.2,387.6 396.5,439.6C414.1,416.3 433.7,343.4 440.7,311.9C442.8,302.6 444.9,290.9 446.9,277.9C475.5,247.6 501.2,218.8 519,196.7C532,180.7 537.5,161.3 537.4,145.3C537.4,143.2 537.3,141.2 537.2,139.3C537.4,141.3 537.5,143.3 537.6,145.2Z" style="fill:rgb(0,163,138);fill-rule:nonzero;"></path> <path d="M92.6,145.2C92.5,161.3 98.1,180.6 111,196.6C128.9,218.7 154.5,247.5 183.1,277.8C185.1,290.8 187.2,302.5 189.3,311.8C196.4,343.3 215.9,416.2 233.5,439.5C179.8,387.6 152.9,356.6 115,299.7C96,271.3 91.2,178.1 92.4,145.1C92.5,143.2 92.6,141.2 92.7,139.1C92.7,141.2 92.7,143.2 92.6,145.2Z" style="fill:rgb(0,163,138);fill-rule:nonzero;"></path> <path d="M383.4,254C374.1,263.8 350.3,266.8 315.1,267.2C279.9,266.8 256.1,263.7 246.8,254C257.3,265.3 286.4,236.2 315.1,202.3C343.7,236.2 372.8,265.3 383.4,254Z" style="fill:rgb(108,168,0);fill-rule:nonzero;"></path> <path d="M383.3,254C372.8,265.3 343.7,236.2 315,202.3C335.2,178.4 355.2,152.2 368.4,135.8C403.2,92.9 418.1,76.1 432.4,66C432.5,66 432.5,65.9 432.6,65.9C453.1,55.8 459.5,101.4 460.2,128.8C460.4,137.6 460.1,149 459.4,162C432,196 412.2,220.4 384,253.4C383.8,253.6 383.6,253.8 383.3,254Z" style="fill:rgb(147,197,1);fill-rule:nonzero;"></path> <path d="M246.8,254C246.5,253.8 246.3,253.6 246.1,253.4C217.9,220.4 198,196 170.7,162.1C170,149.1 169.6,137.7 169.9,128.9C170.6,101.5 176.9,55.9 197.5,66C197.6,66 197.6,66.1 197.7,66.1C212,76.1 226.9,93 261.7,135.9C274.9,152.2 294.9,178.5 315.1,202.4C286.4,236.2 257.3,265.3 246.8,254Z" style="fill:url(#_Linear2);fill-rule:nonzero;"></path> <path d="M525.1,99.9C530.7,104.9 533.8,114.6 535.6,124.9C533.3,112.1 529,103 524.1,100.5C515.1,95.9 483.7,131.9 460.9,160.1C460.4,160.8 459.8,161.4 459.3,162.1C460,149.1 460.4,137.7 460.1,128.9C459.4,101.5 453.1,55.9 432.5,66C454.9,50.8 504,81 525.1,99.9Z" style="fill:rgb(191,203,2);fill-rule:nonzero;"></path> <path d="M169.1,160.1C146.4,131.9 115,95.9 105.9,100.5C101.1,102.9 96.8,112 94.4,124.7C96.2,114.5 99.3,104.9 104.8,100C125.9,81.1 175.1,50.9 197.3,66.1C176.8,56 170.4,101.6 169.7,129C169.5,137.8 169.8,149.2 170.5,162.2C170.2,161.4 169.7,160.7 169.1,160.1Z" style="fill:rgb(191,203,2);fill-rule:nonzero;"></path> <path d="M537.4,145.2C537.5,161.3 531.9,180.6 519,196.6C501.1,218.7 475.5,247.5 446.9,277.8C452.5,242.2 457.4,196.6 459.4,162C459.9,161.3 460.5,160.7 461,160C483.7,131.8 515.1,95.8 524.2,100.4C529,102.9 533.4,112 535.7,124.8C536.5,129.6 537,134.5 537.3,139.1L537.3,139.2C537.4,141.2 537.4,143.2 537.4,145.2Z" style="fill:rgb(208,212,2);fill-rule:nonzero;"></path> <path d="M170.7,162C172.7,196.6 177.6,242.2 183.2,277.8C154.6,247.5 128.9,218.7 111.1,196.6C98.1,180.6 92.6,161.2 92.7,145.2C92.7,143.1 92.8,141.1 92.9,139.2L92.9,139.1C93.2,134.5 93.7,129.6 94.5,124.8L94.5,124.6C96.8,112 101.1,102.9 106,100.4C115,95.8 146.5,131.8 169.2,160C169.7,160.7 170.2,161.4 170.7,162Z" style="fill:rgb(208,212,2);fill-rule:nonzero;"></path> </g> <g transform="matrix(0.145838,0,0,0.145838,66.1397,38.8199)"> <g> <path d="M720.4,370.2C720.4,381.5 711,387.6 694.2,387.6C685.2,387.6 675.1,385.6 667.2,382.1L672.4,367.9C677.3,370.1 688.9,373.2 694.2,373.2C699.9,373.2 701.8,371.7 701.8,369.5C701.8,366.8 697.8,365.8 691.6,364.4C681.5,362 668.2,358.1 668.2,345.6C668.2,335 676.9,328.3 694.3,328.3C702.2,328.3 711.3,329.8 718.4,332.9L712.9,346.8C706.9,344.4 698.9,342.9 694.4,342.9C688.6,342.9 686.5,343.9 686.5,345.8C686.5,347.7 691.1,349 696.4,350.5C707.1,353.8 720.4,357.5 720.4,370.2Z" style="fill-rule:nonzero;"></path> <path d="M783.8,329.5L783.8,345.3L765.8,345.3L765.8,386.4L748.3,386.4L748.3,345.3L730.3,345.3L730.3,329.5L783.8,329.5Z" style="fill-rule:nonzero;"></path> <path d="M851.1,386.4L833.2,386.4L829.4,376.1L806.8,376.1L803,386.4L785.1,386.4L807.9,329.5L828.3,329.5L851.1,386.4ZM824.5,362.8L818.2,345.7L811.9,362.8L824.5,362.8Z" style="fill-rule:nonzero;"></path> <path d="M915.9,329.5L915.9,386.4L902,386.4L878.7,358L878.7,386.4L861.2,386.4L861.2,329.5L875.1,329.5L898.5,357.8L898.5,329.5L915.9,329.5Z" style="fill-rule:nonzero;"></path> <path d="M989.8,357.9C989.8,373.6 978.1,386.4 958.8,386.4L932.3,386.4L932.3,329.5L958.8,329.5C978.1,329.5 989.8,342.2 989.8,357.9ZM971.8,357.9C971.8,350.7 967.4,344.8 957.8,344.8L949.8,344.8L949.8,371.1L957.8,371.1C967.4,371.1 971.8,365.2 971.8,357.9Z" style="fill-rule:nonzero;"></path> <path d="M1059.1,386.4L1041.2,386.4L1037.4,376.1L1014.8,376.1L1011,386.4L993.1,386.4L1015.9,329.5L1036.3,329.5L1059.1,386.4ZM1032.5,362.8L1026.2,345.7L1019.9,362.8L1032.5,362.8Z" style="fill-rule:nonzero;"></path> <path d="M1127.4,386.4L1107.6,386.4L1096,371L1086.9,371L1086.9,386.5L1069.4,386.5L1069.4,329.6L1101.6,329.6C1115.1,329.6 1123.8,338.9 1123.8,350.3C1123.8,357.6 1119.3,363.5 1112.9,367.1L1127.4,386.4ZM1106,350.1C1106,346.8 1103.7,344.1 1098.9,344.1L1086.9,344.1L1086.9,356.1L1098.9,356.1C1103.7,356.1 1106,353.4 1106,350.1Z" style="fill-rule:nonzero;"></path> <path d="M1195.8,357.9C1195.8,373.6 1184.1,386.4 1164.8,386.4L1138.3,386.4L1138.3,329.5L1164.8,329.5C1184.1,329.5 1195.8,342.2 1195.8,357.9ZM1177.8,357.9C1177.8,350.7 1173.4,344.8 1163.8,344.8L1155.8,344.8L1155.8,371.1L1163.8,371.1C1173.4,371.1 1177.8,365.2 1177.8,357.9Z" style="fill-rule:nonzero;"></path> <path d="M1256.9,370.2C1256.9,381.5 1247.5,387.6 1230.7,387.6C1221.7,387.6 1211.6,385.6 1203.7,382.1L1208.9,367.9C1213.8,370.1 1225.4,373.2 1230.7,373.2C1236.4,373.2 1238.3,371.7 1238.3,369.5C1238.3,366.8 1234.3,365.8 1228.1,364.4C1218,362 1204.7,358.1 1204.7,345.6C1204.7,335 1213.4,328.3 1230.8,328.3C1238.7,328.3 1247.8,329.8 1254.9,332.9L1249.4,346.8C1243.4,344.4 1235.4,342.9 1230.9,342.9C1225.1,342.9 1223,343.9 1223,345.8C1223,347.7 1227.6,349 1232.9,350.5C1243.5,353.8 1256.9,357.5 1256.9,370.2Z" style="fill-rule:nonzero;"></path> <path d="M1336.5,344.7L1336.5,353.8L1362.2,353.8L1362.2,369L1336.5,369L1336.5,386.4L1319,386.4L1319,329.5L1368.4,329.5L1368.4,344.7L1336.5,344.7Z" style="fill-rule:nonzero;"></path> <path d="M1437.6,357.8C1437.6,374.4 1424.1,388 1406.2,388C1388.3,388 1374.8,374.4 1374.8,357.8C1374.8,341.2 1388.3,327.7 1406.2,327.7C1424.1,327.7 1437.6,341.2 1437.6,357.8ZM1420.2,357.8C1420.2,350.5 1414.4,343.9 1406.2,343.9C1398,343.9 1392.2,350.5 1392.2,357.8C1392.2,365.1 1398,371.8 1406.2,371.8C1414.4,371.8 1420.2,365.1 1420.2,357.8Z" style="fill-rule:nonzero;"></path> <path d="M1508.1,386.4L1488.3,386.4L1476.7,370.9L1467.6,370.9L1467.6,386.4L1450.1,386.4L1450.1,329.5L1482.3,329.5C1495.8,329.5 1504.5,338.8 1504.5,350.2C1504.5,357.5 1500,363.4 1493.6,367L1508.1,386.4ZM1486.7,350.1C1486.7,346.8 1484.4,344.1 1479.6,344.1L1467.6,344.1L1467.6,356.1L1479.6,356.1C1484.4,356.1 1486.7,353.4 1486.7,350.1Z" style="fill-rule:nonzero;"></path> <path d="M1575.3,329.4L1575.3,359.8C1575.3,376.5 1564.6,388.1 1546.8,388.1C1529,388.1 1518.3,376.5 1518.3,359.8L1518.3,329.4L1535.8,329.4L1535.8,360.3C1535.8,366.2 1539.4,372.1 1546.8,372.1C1554.2,372.1 1557.8,366.2 1557.8,360.3L1557.8,329.4L1575.3,329.4Z" style="fill-rule:nonzero;"></path> <path d="M1657.5,329.5L1657.5,386.4L1640.4,386.4L1640.4,357.7L1629,374.9L1620.1,374.9L1608.7,357.7L1608.7,386.4L1591.6,386.4L1591.6,329.5L1607.5,329.5L1624.6,355.3L1641.8,329.5L1657.5,329.5Z" style="fill-rule:nonzero;"></path> </g> </g> <g transform="matrix(0.145838,0,0,0.145838,66.1397,38.8199)"> <path d="M670,274.4L670,138.3C670,135.5 672.1,133.4 675,133.4L694.9,133.4C697,133.4 698.8,134.6 699.7,136.6L746.2,263.8L792.7,136.6C793.5,134.6 795.4,133.4 797.5,133.4L817.4,133.4C820.3,133.4 822.4,135.4 822.4,138.3L822.4,274.4C822.4,277.2 820.3,279.3 817.4,279.3L810,279.3C807.1,279.3 805,277.3 805,274.4L805,148.8L758.5,276C757.7,278 755.8,279.2 753.7,279.2L738.5,279.2C736.4,279.2 734.6,278 733.7,276L687.4,148.8L687.4,274.3C687.4,277.1 685.3,279.2 682.4,279.2L675,279.2C672.1,279.2 670,277.2 670,274.4Z" style="fill-rule:nonzero;"></path> <path d="M901.6,267.3C915.1,267.3 923.2,261.8 927.6,257.8C929.1,256.6 931.1,256 933,256.8L939.2,259C942.7,260.4 943.8,263.3 941.3,265.9C934.2,273.2 921.4,281.3 901.6,281.3C868.6,281.3 849.9,259.4 849.9,229.5C849.9,199.5 868.6,177.7 899.5,177.7C927.1,177.7 949.4,194.7 948.7,231.8C948.7,234.4 946.6,236.3 943.9,236.3L867.2,236.3C869.6,254.3 880.4,267.3 901.6,267.3ZM899.5,191.5C880.8,191.5 869.6,204.5 867.3,222.9L930.7,222.9C930.7,204.9 918.6,191.5 899.5,191.5Z" style="fill-rule:nonzero;"></path> <path d="M981.4,235.7L981.4,193.6L965.8,193.6C962.9,193.6 960.8,191.6 960.8,188.7L960.8,184.4C960.8,181.6 962.9,179.5 965.8,179.5L981.4,179.5L981.4,155.4C981.4,152.6 983.5,150.5 986.4,150.5L993.5,150.5C996.4,150.5 998.5,152.5 998.5,155.4L998.5,179.5L1023.6,179.5C1026.5,179.5 1028.6,181.5 1028.6,184.4L1028.6,188.7C1028.6,191.5 1026.5,193.6 1023.6,193.6L998.5,193.6L998.5,235.7C998.5,257.4 1000.4,267.3 1014.1,267.3C1016.6,267.3 1019.1,267.1 1021.2,266.7C1024.1,266.3 1026.6,267.5 1027.4,270.3L1028.6,274.8C1029.4,277.4 1028.2,279.7 1025.5,280.3C1022.8,280.7 1019.1,281.3 1014.1,281.3C987.2,281.2 981.4,266.1 981.4,235.7Z" style="fill-rule:nonzero;"></path> <path d="M1119.7,274.4L1119.7,263.3C1115.1,273.2 1100.4,281.3 1084.8,281.3C1062.6,281.3 1045.5,271.8 1045.5,250.1C1045.5,215.9 1090.8,216.7 1119.7,218.1C1119.3,202.5 1115.1,191.6 1090.8,191.6C1079.6,191.6 1069.4,195.2 1062.1,198.9C1061.3,199.3 1060.2,199.5 1059.4,199.5C1057.7,199.5 1056.3,198.9 1055.2,197.3L1052.5,193.3C1050.8,190.9 1051.3,188.2 1054,186.6C1061.7,182.8 1074.2,177.7 1090.8,177.7C1129,177.7 1136.7,197.1 1136.7,223.3L1136.7,274.5C1136.7,277.3 1134.6,279.4 1131.7,279.4L1124.6,279.4C1121.8,279.2 1119.7,277.2 1119.7,274.4ZM1062.2,250.1C1062.2,260.8 1070.5,267.3 1087.1,267.3C1109.3,267.3 1119.7,254.9 1119.7,238.8L1119.7,230.9C1095.2,230.2 1062.2,228.8 1062.2,250.1Z" style="fill-rule:nonzero;"></path> <path d="M1190.1,276.2L1153.3,186.3C1151.6,182.3 1153.5,179.6 1157.9,179.6L1165.4,179.6C1167.3,179.6 1169.1,180.8 1170,182.6L1199.9,257.5L1229.8,182.6C1230.6,180.8 1232.5,179.6 1234.4,179.6L1241.9,179.6C1246.3,179.6 1248.1,182.2 1246.5,186.3L1209.7,276.2C1208.9,278 1207,279.2 1205.1,279.2L1194.7,279.2C1192.8,279.2 1190.9,278 1190.1,276.2Z" style="fill-rule:nonzero;"></path> <path d="M1310.6,267.3C1324.1,267.3 1332.2,261.8 1336.6,257.8C1338.1,256.6 1340.1,256 1342,256.8L1348.2,259C1351.7,260.4 1352.8,263.3 1350.3,265.9C1343.2,273.2 1330.4,281.3 1310.6,281.3C1277.6,281.3 1258.9,259.4 1258.9,229.5C1258.9,199.5 1277.6,177.7 1308.5,177.7C1336.1,177.7 1358.4,194.7 1357.7,231.8C1357.7,234.4 1355.6,236.3 1352.9,236.3L1276.2,236.3C1278.6,254.3 1289.4,267.3 1310.6,267.3ZM1308.5,191.5C1289.8,191.5 1278.6,204.5 1276.3,222.9L1339.7,222.9C1339.7,204.9 1327.6,191.5 1308.5,191.5Z" style="fill-rule:nonzero;"></path> <path d="M1384.3,274.4L1384.3,184.5C1384.3,181.7 1386.4,179.6 1389.3,179.6L1396.4,179.6C1399.5,179.6 1401.4,181.4 1401.4,184.5L1401.6,195.6C1401.8,195 1408.2,177.6 1429,177.6C1433.2,177.6 1436.3,178 1439,178.6C1441.1,179 1442.5,180.8 1442.5,183.1L1442.5,186.7C1442.5,190.5 1440,192.4 1436.3,192C1434,191.8 1431.5,191.6 1428.8,191.6C1411.1,191.6 1401.4,204.6 1401.4,224L1401.4,274.4C1401.4,277.2 1399.3,279.3 1396.4,279.3L1389.3,279.3C1386.4,279.2 1384.3,277.2 1384.3,274.4Z" style="fill-rule:nonzero;"></path> <path d="M1461.6,258.8L1468.5,256.8C1470.4,256.2 1472.7,257 1474.1,258.4C1478.9,263.3 1486.8,267.3 1498.2,267.3C1513.8,267.3 1523.5,261.2 1523.5,252.3C1523.5,242 1515.4,238.5 1496.9,234.7C1469.7,229.6 1459.7,220.1 1459.7,205.1C1459.7,190.3 1471.3,177.6 1498.1,177.6C1518.9,177.6 1528.8,185.5 1534,192.6C1536.1,195.4 1534.8,198.1 1531.5,199.1L1524.9,201.1C1523,201.7 1520.7,200.9 1519.3,199.5C1516,196.1 1509.7,191.6 1498.1,191.6C1484.4,191.6 1476.7,196.9 1476.7,205.2C1476.7,212.7 1482.9,216.5 1499.8,220.2C1528.1,225.5 1540.5,233.2 1540.5,252.4C1540.5,271.2 1522.8,281.4 1498.1,281.4C1480,281.4 1465.9,275.5 1458.8,265.2C1457,262.4 1458.3,259.8 1461.6,258.8Z" style="fill-rule:nonzero;"></path> <path d="M1612.4,267.3C1625.9,267.3 1634,261.8 1638.4,257.8C1639.9,256.6 1641.9,256 1643.8,256.8L1650,259C1653.5,260.4 1654.6,263.3 1652.1,265.9C1645,273.2 1632.2,281.3 1612.4,281.3C1579.4,281.3 1560.7,259.4 1560.7,229.5C1560.7,199.5 1579.4,177.7 1610.3,177.7C1637.9,177.7 1660.2,194.7 1659.5,231.8C1659.5,234.4 1657.4,236.3 1654.7,236.3L1578,236.3C1580.4,254.3 1591.2,267.3 1612.4,267.3ZM1610.3,191.5C1591.6,191.5 1580.4,204.5 1578.1,222.9L1641.5,222.9C1641.5,204.9 1629.5,191.5 1610.3,191.5Z" style="fill-rule:nonzero;"></path> </g> <g transform="matrix(0.145838,0,0,0.145838,66.1397,38.8199)"> <g> <path d="M1703.6,329.4L1703.6,335.2L1697,335.2L1697,350.2L1690.6,350.2L1690.6,335.2L1684,335.2L1684,329.4L1703.6,329.4Z" style="fill-rule:nonzero;"></path> <path d="M1732.4,329.4L1732.4,350.2L1726.1,350.2L1726.1,339.7L1721.9,346L1718.6,346L1714.4,339.7L1714.4,350.2L1708.1,350.2L1708.1,329.4L1713.9,329.4L1720.2,338.8L1726.5,329.4L1732.4,329.4Z" style="fill-rule:nonzero;"></path> </g> </g> </g> </g> <defs> <linearGradient id="_Linear1" x1="0" y1="0" x2="1" y2="0" gradientUnits="userSpaceOnUse" gradientTransform="matrix(97.2148,14.2316,-14.2316,97.2148,195.135,360.809)"><stop offset="0" style="stop-color:rgb(0,125,153);stop-opacity:1"></stop><stop offset="0.18" style="stop-color:rgb(0,125,153);stop-opacity:1"></stop><stop offset="0.32" style="stop-color:rgb(0,141,173);stop-opacity:1"></stop><stop offset="0.59" style="stop-color:rgb(0,168,206);stop-opacity:1"></stop><stop offset="0.74" style="stop-color:rgb(0,178,218);stop-opacity:1"></stop><stop offset="1" style="stop-color:rgb(0,178,218);stop-opacity:1"></stop></linearGradient> <linearGradient id="_Linear2" x1="0" y1="0" x2="1" y2="0" gradientUnits="userSpaceOnUse" gradientTransform="matrix(186.745,38.5468,-38.5468,186.745,170.512,149.806)"><stop offset="0" style="stop-color:rgb(113,148,9);stop-opacity:1"></stop><stop offset="0.03" style="stop-color:rgb(113,148,9);stop-opacity:1"></stop><stop offset="0.11" style="stop-color:rgb(128,169,6);stop-opacity:1"></stop><stop offset="0.19" style="stop-color:rgb(139,185,3);stop-opacity:1"></stop><stop offset="0.29" style="stop-color:rgb(145,194,1);stop-opacity:1"></stop><stop offset="0.42" style="stop-color:rgb(147,197,1);stop-opacity:1"></stop><stop offset="1" style="stop-color:rgb(147,197,1);stop-opacity:1"></stop></linearGradient> </defs> </svg> 